<svg xmlns="http://www.w3.org/2000/svg" width="2048" height="2048" viewBox="0 0 512 512"><g stroke="#263943" fill="none" stroke-width="12" stroke-linecap="round" stroke-linejoin="round"><rect x="64" y="178" width="384" height="174" rx="12"/><rect x="85" y="197" width="83" height="129" rx="4"/><rect x="181" y="197" width="77" height="129" rx="4"/><rect x="271" y="197" width="77" height="129" rx="4"/><rect x="361" y="197" width="66" height="129" rx="4"/><circle cx="200" cy="223" r="6" stroke="none" fill="#0A93A3"/><circle cx="200" cy="249" r="6" stroke="none" fill="#0A93A3"/><circle cx="200" cy="275" r="6" stroke="none" fill="#0A93A3"/><circle cx="229" cy="223" r="6" stroke="none" fill="#0A93A3"/><circle cx="229" cy="249" r="6" stroke="none" fill="#0A93A3"/><circle cx="229" cy="275" r="6" stroke="none" fill="#0A93A3"/><circle cx="290" cy="223" r="6" stroke="none" fill="#0A93A3"/><circle cx="290" cy="249" r="6" stroke="none" fill="#0A93A3"/><circle cx="290" cy="275" r="6" stroke="none" fill="#0A93A3"/><circle cx="319" cy="223" r="6" stroke="none" fill="#0A93A3"/><circle cx="319" cy="249" r="6" stroke="none" fill="#0A93A3"/><circle cx="319" cy="275" r="6" stroke="none" fill="#0A93A3"/><circle cx="381" cy="223" r="6" stroke="none" fill="#0A93A3"/><circle cx="381" cy="249" r="6" stroke="none" fill="#0A93A3"/><circle cx="381" cy="275" r="6" stroke="none" fill="#0A93A3"/><circle cx="405" cy="223" r="6" stroke="none" fill="#0A93A3"/><circle cx="405" cy="249" r="6" stroke="none" fill="#0A93A3"/><circle cx="405" cy="275" r="6" stroke="none" fill="#0A93A3"/><path d="M85 337 L427 337"/><circle cx="103" cy="317" r="5" stroke="none" fill="#0A93A3"/><circle cx="131" cy="317" r="5" stroke="none" fill="#0A93A3"/><circle cx="159" cy="317" r="5" stroke="none" fill="#0A93A3"/><circle cx="187" cy="317" r="5" stroke="none" fill="#0A93A3"/><circle cx="215" cy="317" r="5" stroke="none" fill="#0A93A3"/><circle cx="243" cy="317" r="5" stroke="none" fill="#0A93A3"/><circle cx="271" cy="317" r="5" stroke="none" fill="#0A93A3"/><circle cx="299" cy="317" r="5" stroke="none" fill="#0A93A3"/><circle cx="327" cy="317" r="5" stroke="none" fill="#0A93A3"/><circle cx="355" cy="317" r="5" stroke="none" fill="#0A93A3"/><circle cx="383" cy="317" r="5" stroke="none" fill="#0A93A3"/><circle cx="411" cy="317" r="5" stroke="none" fill="#0A93A3"/></g></svg>